<svg width="418" height="306" viewBox="0 0 418 306" fill="none" xmlns="http://www.w3.org/2000/svg">
<path d="M49.0316 29.692H45.1436V7.84L41.7596 10.684L39.4916 8.2L45.7916 2.836H49.0316V29.692Z" fill="black"/>
<path d="M74.22 8.18H75.24C76.12 8.18 76.8133 8.02 77.32 7.7C77.9333 7.34 78.24 6.79333 78.24 6.06C78.24 5.19333 77.98 4.62667 77.46 4.36C77.1 4.18667 76.3667 4.1 75.26 4.1H74.22V8.18ZM81.66 16.86H79.36L77.2 11.86C76.9067 11.18 76.64 10.7533 76.4 10.58C76.1067 10.3533 75.64 10.24 75 10.24H74.22V16.86H72.08V2.06H76C78.9333 2.06 80.4 3.39333 80.4 6.06C80.4 6.94 80.1267 7.67333 79.58 8.26C79.0333 8.84667 78.32 9.22667 77.44 9.4C78.1867 9.54667 78.74 10.04 79.1 10.88L81.66 16.86ZM92.0689 11.06L89.6489 4.9L87.2089 11.06H92.0689ZM96.7089 16.94H94.3889L92.8689 13.12H86.3889L84.8489 16.94H82.5489L88.6289 2.02H90.8089L96.7089 16.94ZM100.97 16.86H98.7703V2.06H100.97V16.86ZM115.183 16.94H112.783L106.383 5.76V16.94H104.223V2.02H106.523L113.023 13.38V2.02H115.183V16.94ZM130.634 2.02L125.114 10.64V16.94H122.934V10.64L117.414 2.02H120.014L124.014 8.58L128.134 2.02H130.634ZM134.998 14.8H135.718C139.771 14.8 141.798 12.9867 141.798 9.36C141.798 5.85333 140.065 4.1 136.598 4.1H134.998V14.8ZM132.818 2.06H136.598C139.105 2.06 140.991 2.75333 142.258 4.14C143.391 5.39333 143.958 7.15333 143.958 9.42C143.958 11.98 143.145 13.8933 141.518 15.16C140.091 16.2933 138.111 16.86 135.578 16.86H132.818V2.06ZM155.389 11.06L152.969 4.9L150.529 11.06H155.389ZM160.029 16.94H157.709L156.189 13.12H149.709L148.169 16.94H145.869L151.949 2.02H154.129L160.029 16.94ZM174.111 2.02L168.591 10.64V16.94H166.411V10.64L160.891 2.02H163.491L167.491 8.58L171.611 2.02H174.111ZM183.155 4.32C182.488 3.98667 181.595 3.82 180.475 3.82C178.741 3.82 177.875 4.46 177.875 5.74C177.875 6.35333 178.415 7 179.495 7.68C180.388 8.25333 181.088 8.70667 181.595 9.04C182.101 9.37333 182.408 9.59333 182.515 9.7C183.595 10.6467 184.135 11.74 184.135 12.98C184.135 14.3667 183.601 15.4533 182.535 16.24C181.628 16.9067 180.541 17.24 179.275 17.24C178.008 17.24 176.848 17.0067 175.795 16.54L176.055 14.32C177.055 14.88 178.155 15.16 179.355 15.16C181.128 15.16 182.015 14.38 182.015 12.82C182.015 12.2067 181.475 11.54 180.395 10.82C179.421 10.1667 178.681 9.66667 178.175 9.32C177.681 8.97333 177.415 8.78667 177.375 8.76C176.308 7.84 175.775 6.83333 175.775 5.74C175.775 4.5 176.255 3.50667 177.215 2.76C178.081 2.09333 179.175 1.76 180.495 1.76C181.588 1.76 182.595 1.93333 183.515 2.28L183.155 4.32ZM199.658 4.32C198.992 3.98667 198.098 3.82 196.978 3.82C195.245 3.82 194.378 4.46 194.378 5.74C194.378 6.35333 194.918 7 195.998 7.68C196.892 8.25333 197.592 8.70667 198.098 9.04C198.605 9.37333 198.912 9.59333 199.018 9.7C200.098 10.6467 200.638 11.74 200.638 12.98C200.638 14.3667 200.105 15.4533 199.038 16.24C198.132 16.9067 197.045 17.24 195.778 17.24C194.512 17.24 193.352 17.0067 192.298 16.54L192.558 14.32C193.558 14.88 194.658 15.16 195.858 15.16C197.632 15.16 198.518 14.38 198.518 12.82C198.518 12.2067 197.978 11.54 196.898 10.82C195.925 10.1667 195.185 9.66667 194.678 9.32C194.185 8.97333 193.918 8.78667 193.878 8.76C192.812 7.84 192.278 6.83333 192.278 5.74C192.278 4.5 192.758 3.50667 193.718 2.76C194.585 2.09333 195.678 1.76 196.998 1.76C198.092 1.76 199.098 1.93333 200.018 2.28L199.658 4.32ZM209.717 3.78C208.33 3.78 207.237 4.36667 206.437 5.54C205.704 6.59333 205.337 7.9 205.337 9.46C205.337 11.0333 205.704 12.3467 206.437 13.4C207.237 14.5733 208.33 15.16 209.717 15.16C211.104 15.16 212.197 14.5733 212.997 13.4C213.717 12.3467 214.077 11.0333 214.077 9.46C214.077 7.91333 213.717 6.60667 212.997 5.54C212.197 4.36667 211.104 3.78 209.717 3.78ZM209.717 1.76C211.85 1.76 213.51 2.55333 214.697 4.14C215.75 5.55333 216.27 7.32667 216.257 9.46C216.23 11.7933 215.684 13.6333 214.617 14.98C213.457 16.4467 211.824 17.18 209.717 17.18C207.624 17.18 205.984 16.4467 204.797 14.98C203.704 13.6067 203.157 11.7667 203.157 9.46C203.157 7.3 203.677 5.52 204.717 4.12C205.89 2.54667 207.557 1.76 209.717 1.76ZM230.099 16.94H227.939V10.28H221.799V16.94H219.619V2.02H221.799V8.24H227.939V2.02H230.099V16.94ZM239.99 3.78C238.604 3.78 237.51 4.36667 236.71 5.54C235.977 6.59333 235.61 7.9 235.61 9.46C235.61 11.0333 235.977 12.3467 236.71 13.4C237.51 14.5733 238.604 15.16 239.99 15.16C241.377 15.16 242.47 14.5733 243.27 13.4C243.99 12.3467 244.35 11.0333 244.35 9.46C244.35 7.91333 243.99 6.60667 243.27 5.54C242.47 4.36667 241.377 3.78 239.99 3.78ZM239.99 1.76C242.124 1.76 243.784 2.55333 244.97 4.14C246.024 5.55333 246.544 7.32667 246.53 9.46C246.504 11.7933 245.957 13.6333 244.89 14.98C243.73 16.4467 242.097 17.18 239.99 17.18C237.897 17.18 236.257 16.4467 235.07 14.98C233.977 13.6067 233.43 11.7667 233.43 9.46C233.43 7.3 233.95 5.52 234.99 4.12C236.164 2.54667 237.83 1.76 239.99 1.76ZM74.4 26.02L74.28 29.78C74.8 29.6067 75.4 29.52 76.08 29.52C77.4667 29.52 78.5933 29.92 79.46 30.72C80.34 31.5467 80.78 32.6533 80.78 34.04C80.78 35.68 80.26 36.94 79.22 37.82C78.26 38.66 76.9667 39.08 75.34 39.08C73.9933 39.08 72.8733 38.8867 71.98 38.5V36.38C73.02 36.8867 74.1667 37.14 75.42 37.14C76.38 37.14 77.1533 36.9067 77.74 36.44C78.3667 35.9333 78.68 35.22 78.68 34.3C78.68 32.3933 77.6133 31.44 75.48 31.44C74.3733 31.44 73.26 31.6 72.14 31.92L72.28 24.02H80.04V26.02H74.4ZM88.2489 32.1C87.2089 32.5133 86.4822 32.9133 86.0689 33.3C85.6422 33.7267 85.4289 34.2667 85.4289 34.92C85.4289 35.5333 85.7089 36.0467 86.2689 36.46C86.8556 36.8867 87.5222 37.1 88.2689 37.1C89.1089 37.1 89.7756 36.9133 90.2689 36.54C90.8289 36.1267 91.1089 35.54 91.1089 34.78C91.1089 34.1667 90.8422 33.6533 90.3089 33.24C89.9222 32.9333 89.2356 32.5533 88.2489 32.1ZM88.2689 30.26C89.8556 29.4733 90.6489 28.6267 90.6489 27.72C90.6489 27.1733 90.4022 26.72 89.9089 26.36C89.4556 26.0267 88.9089 25.86 88.2689 25.86C87.5756 25.86 87.0022 26.0333 86.5489 26.38C86.0956 26.7133 85.8689 27.16 85.8689 27.72C85.8689 28.2933 86.1156 28.8067 86.6089 29.26C86.7822 29.4067 87.0022 29.5667 87.2689 29.74C87.5489 29.9 87.8822 30.0733 88.2689 30.26ZM90.3889 31.1C92.2822 31.94 93.2289 33.2333 93.2289 34.98C93.2289 36.3933 92.6822 37.46 91.5889 38.18C90.6822 38.78 89.5756 39.08 88.2689 39.08C86.9756 39.08 85.8689 38.76 84.9489 38.12C83.8556 37.3867 83.3089 36.34 83.3089 34.98C83.3089 33.26 84.2156 31.9733 86.0289 31.12C84.4956 30.2 83.7289 29.0067 83.7289 27.54C83.7289 26.3 84.2756 25.34 85.3689 24.66C86.2222 24.1267 87.1889 23.86 88.2689 23.86C89.4822 23.86 90.5022 24.14 91.3289 24.7C92.2889 25.3667 92.7689 26.3133 92.7689 27.54C92.7689 28.8733 91.9756 30.06 90.3889 31.1ZM101.538 33.62V26.98L97.2978 33.62H101.538ZM105.718 35.62H103.678V38.94H101.538V35.62H94.9378V33.74L101.298 24.02H103.678V33.62H105.718V35.62ZM116.032 36.8H117.032C119.326 36.8 120.472 36.04 120.472 34.52C120.472 33.5467 120.079 32.8867 119.292 32.54C118.772 32.3133 117.946 32.2 116.812 32.2H116.032V36.8ZM116.072 30.14H117.172C119.092 30.14 120.052 29.42 120.052 27.98C120.052 26.7267 119.206 26.1 117.512 26.1H116.072V30.14ZM113.892 24.06H117.512C120.619 24.06 122.172 25.3133 122.172 27.82C122.172 29.4867 121.359 30.5733 119.732 31.08C120.612 31.3333 121.306 31.76 121.812 32.36C122.346 32.9733 122.612 33.7 122.612 34.54C122.612 37.42 120.739 38.86 116.992 38.86H113.892V24.06ZM131.021 30C130.848 29.9733 130.688 29.9533 130.541 29.94C130.394 29.9133 130.248 29.9 130.101 29.9C129.328 29.9 128.754 30.28 128.381 31.04C128.034 31.7067 127.861 32.5333 127.861 33.52V38.94H125.721V30.7C125.721 30.1933 125.708 29.72 125.681 29.28C125.668 28.8267 125.648 28.4067 125.621 28.02H127.781V29.36C128.394 28.3067 129.174 27.78 130.121 27.78C130.414 27.78 130.714 27.82 131.021 27.9V30ZM137.527 29.66C136.62 29.66 135.9 30.02 135.367 30.74C134.86 31.4467 134.607 32.36 134.607 33.48C134.607 34.6 134.86 35.5133 135.367 36.22C135.9 36.94 136.62 37.3 137.527 37.3C138.433 37.3 139.147 36.94 139.667 36.22C140.187 35.5267 140.447 34.6133 140.447 33.48C140.447 32.36 140.187 31.4467 139.667 30.74C139.147 30.02 138.433 29.66 137.527 29.66ZM137.527 27.78C139.18 27.78 140.467 28.3733 141.387 29.56C142.213 30.6133 142.627 31.92 142.627 33.48C142.627 35.04 142.213 36.3467 141.387 37.4C140.467 38.5867 139.18 39.18 137.527 39.18C135.86 39.18 134.567 38.5867 133.647 37.4C132.833 36.3733 132.427 35.0667 132.427 33.48C132.427 31.8933 132.833 30.5867 133.647 29.56C134.567 28.3733 135.86 27.78 137.527 27.78ZM150.996 38.96V37.9C150.342 38.7533 149.402 39.18 148.176 39.18C146.842 39.18 145.856 38.8067 145.216 38.06C144.762 37.5133 144.536 36.8467 144.536 36.06C144.536 33.34 146.536 31.98 150.536 31.98H150.836V31.62C150.836 30.3133 150.229 29.66 149.016 29.66C147.922 29.66 146.842 29.9467 145.776 30.52V28.56C146.789 28.04 147.909 27.78 149.136 27.78C150.416 27.78 151.349 28.08 151.936 28.68C152.562 29.3333 152.876 30.3467 152.876 31.72V36.38C152.876 37.6067 152.916 38.4667 152.996 38.96H150.996ZM150.836 33.84H150.416C149.376 33.84 148.576 33.9333 148.016 34.12C147.122 34.4133 146.676 34.9933 146.676 35.86C146.676 36.82 147.229 37.3 148.336 37.3C150.002 37.3 150.836 36.2867 150.836 34.26V33.84ZM160.354 29.5C159.447 29.5 158.774 29.9067 158.334 30.72C157.961 31.3867 157.774 32.2933 157.774 33.44C157.774 35.9867 158.634 37.26 160.354 37.26C161.181 37.26 161.834 36.8467 162.314 36.02C162.701 35.3133 162.894 34.4333 162.894 33.38C162.894 32.3267 162.701 31.4467 162.314 30.74C161.847 29.9133 161.194 29.5 160.354 29.5ZM164.914 38.96H162.894V37.96C162.227 38.7867 161.314 39.2 160.154 39.2C158.701 39.2 157.574 38.66 156.774 37.58C156.027 36.5267 155.654 35.1467 155.654 33.44C155.654 31.68 156.001 30.2933 156.694 29.28C157.454 28.1467 158.607 27.58 160.154 27.58C161.221 27.58 162.134 28.02 162.894 28.9V22.9H164.914V38.96ZM183.423 28.04L179.803 38.94H177.643L175.163 31.04L172.603 38.94H170.423L166.883 28.04H169.163L171.583 35.88L174.123 28.04H176.303L178.723 35.88L181.243 28.04H183.423ZM191.191 38.96V37.9C190.538 38.7533 189.598 39.18 188.371 39.18C187.038 39.18 186.051 38.8067 185.411 38.06C184.958 37.5133 184.731 36.8467 184.731 36.06C184.731 33.34 186.731 31.98 190.731 31.98H191.031V31.62C191.031 30.3133 190.424 29.66 189.211 29.66C188.118 29.66 187.038 29.9467 185.971 30.52V28.56C186.984 28.04 188.104 27.78 189.331 27.78C190.611 27.78 191.544 28.08 192.131 28.68C192.758 29.3333 193.071 30.3467 193.071 31.72V36.38C193.071 37.6067 193.111 38.4667 193.191 38.96H191.191ZM191.031 33.84H190.611C189.571 33.84 188.771 33.9333 188.211 34.12C187.318 34.4133 186.871 34.9933 186.871 35.86C186.871 36.82 187.424 37.3 188.531 37.3C190.198 37.3 191.031 36.2867 191.031 34.26V33.84ZM204.289 28.04L200.329 39.1C199.996 40.0333 199.649 40.68 199.289 41.04C198.849 41.5333 198.263 41.7867 197.529 41.8H197.329C196.823 41.8 196.303 41.7333 195.769 41.6L195.989 39.6C196.456 39.7733 196.836 39.86 197.129 39.86C197.156 39.86 197.209 39.8533 197.289 39.84C197.383 39.84 197.503 39.8333 197.649 39.82C197.956 39.7933 198.236 39.3467 198.489 38.48L198.649 37.96L195.029 28.04H197.229L199.649 35.34L202.169 28.04H204.289ZM214.118 36.8H215.118C217.411 36.8 218.558 36.04 218.558 34.52C218.558 33.5467 218.165 32.8867 217.378 32.54C216.858 32.3133 216.031 32.2 214.898 32.2H214.118V36.8ZM214.158 30.14H215.258C217.178 30.14 218.138 29.42 218.138 27.98C218.138 26.7267 217.291 26.1 215.598 26.1H214.158V30.14ZM211.978 24.06H215.598C218.705 24.06 220.258 25.3133 220.258 27.82C220.258 29.4867 219.445 30.5733 217.818 31.08C218.698 31.3333 219.391 31.76 219.898 32.36C220.431 32.9733 220.698 33.7 220.698 34.54C220.698 37.42 218.825 38.86 215.078 38.86H211.978V24.06ZM234.253 32.14H228.833V30.1H234.253V32.14ZM247.544 38.94H245.384V26.8L243.504 28.38L242.244 27L245.744 24.02H247.544V38.94ZM256.999 25.96C255.853 25.96 255.066 26.6133 254.639 27.92C254.386 28.6933 254.259 29.8733 254.259 31.46C254.259 33.06 254.386 34.24 254.639 35C255.053 36.32 255.839 36.98 256.999 36.98C258.146 36.98 258.933 36.32 259.359 35C259.613 34.2267 259.739 33.0467 259.739 31.46C259.739 29.8733 259.613 28.6933 259.359 27.92C258.933 26.6133 258.146 25.96 256.999 25.96ZM256.999 23.9C258.813 23.9 260.133 24.7533 260.959 26.46C261.586 27.7533 261.899 29.42 261.899 31.46C261.899 36.5 260.266 39.02 256.999 39.02C253.733 39.02 252.099 36.5 252.099 31.46C252.099 29.3933 252.406 27.7267 253.019 26.46C253.846 24.7533 255.173 23.9 256.999 23.9ZM264.428 36.3C265.748 36.8467 266.968 37.12 268.088 37.12C268.982 37.12 269.702 36.92 270.248 36.52C270.875 36.08 271.188 35.4333 271.188 34.58C271.188 32.98 270.068 32.18 267.828 32.18H266.348V30.18H266.948C268.188 30.18 269.122 30.06 269.748 29.82C270.668 29.4467 271.128 28.74 271.128 27.7C271.128 27.4333 271.055 27.1867 270.908 26.96C270.775 26.7333 270.588 26.54 270.348 26.38C270.108 26.22 269.822 26.0933 269.488 26C269.168 25.9067 268.822 25.86 268.448 25.86C267.462 25.86 266.348 26.1467 265.108 26.72L264.908 24.56C266.148 24.0933 267.368 23.86 268.568 23.86C269.888 23.86 270.955 24.1267 271.768 24.66C272.782 25.3133 273.288 26.3 273.288 27.62C273.288 29.1933 272.522 30.36 270.988 31.12C272.548 31.7067 273.328 32.9 273.328 34.7C273.328 36.0733 272.802 37.1667 271.748 37.98C270.775 38.7133 269.528 39.08 268.008 39.08C266.462 39.08 265.188 38.8733 264.188 38.46L264.428 36.3ZM279.497 40.2H277.017V37.82H279.497V40.2ZM299.577 38.94H297.177L290.777 27.76V38.94H288.617V24.02H290.917L297.417 35.38V24.02H299.577V38.94ZM311.309 34.24H304.569C304.609 35.2 304.869 35.9467 305.349 36.48C305.842 37.0533 306.522 37.34 307.389 37.34C308.589 37.34 309.649 37.08 310.569 36.56V38.58C309.502 38.98 308.422 39.18 307.329 39.18C305.609 39.18 304.329 38.6333 303.489 37.54C302.755 36.5667 302.389 35.2067 302.389 33.46C302.389 31.78 302.795 30.4133 303.609 29.36C304.422 28.3067 305.515 27.78 306.889 27.78C308.422 27.78 309.569 28.3267 310.329 29.42C310.982 30.3533 311.309 31.5867 311.309 33.12V34.24ZM309.129 32.34C309.129 31.5933 308.935 30.9667 308.549 30.46C308.149 29.9267 307.622 29.66 306.969 29.66C306.302 29.66 305.735 29.9333 305.269 30.48C304.802 31.0267 304.569 31.6467 304.569 32.34H309.129ZM329.087 28.04L325.467 38.94H323.307L320.827 31.04L318.267 38.94H316.087L312.547 28.04H314.827L317.247 35.88L319.787 28.04H321.967L324.387 35.88L326.907 28.04H329.087ZM348.7 24.02L343.18 32.64V38.94H341V32.64L335.48 24.02H338.08L342.08 30.58L346.2 24.02H348.7ZM355.124 29.66C354.218 29.66 353.498 30.02 352.964 30.74C352.458 31.4467 352.204 32.36 352.204 33.48C352.204 34.6 352.458 35.5133 352.964 36.22C353.498 36.94 354.218 37.3 355.124 37.3C356.031 37.3 356.744 36.94 357.264 36.22C357.784 35.5267 358.044 34.6133 358.044 33.48C358.044 32.36 357.784 31.4467 357.264 30.74C356.744 30.02 356.031 29.66 355.124 29.66ZM355.124 27.78C356.778 27.78 358.064 28.3733 358.984 29.56C359.811 30.6133 360.224 31.92 360.224 33.48C360.224 35.04 359.811 36.3467 358.984 37.4C358.064 38.5867 356.778 39.18 355.124 39.18C353.458 39.18 352.164 38.5867 351.244 37.4C350.431 36.3733 350.024 35.0667 350.024 33.48C350.024 31.8933 350.431 30.5867 351.244 29.56C352.164 28.3733 353.458 27.78 355.124 27.78ZM368.013 30C367.84 29.9733 367.68 29.9533 367.533 29.94C367.387 29.9133 367.24 29.9 367.093 29.9C366.32 29.9 365.747 30.28 365.373 31.04C365.027 31.7067 364.853 32.5333 364.853 33.52V38.94H362.713V30.7C362.713 30.1933 362.7 29.72 362.673 29.28C362.66 28.8267 362.64 28.4067 362.613 28.02H364.773V29.36C365.387 28.3067 366.167 27.78 367.113 27.78C367.407 27.78 367.707 27.82 368.013 27.9V30ZM379.379 38.86H376.579L372.259 34.24V38.86H370.119V22.94H372.259V31.42L376.119 27.78H378.879L373.599 32.76L379.379 38.86ZM74.22 118.18H75.24C76.12 118.18 76.8133 118.02 77.32 117.7C77.9333 117.34 78.24 116.793 78.24 116.06C78.24 115.193 77.98 114.627 77.46 114.36C77.1 114.187 76.3667 114.1 75.26 114.1H74.22V118.18ZM81.66 126.86H79.36L77.2 121.86C76.9067 121.18 76.64 120.753 76.4 120.58C76.1067 120.353 75.64 120.24 75 120.24H74.22V126.86H72.08V112.06H76C78.9333 112.06 80.4 113.393 80.4 116.06C80.4 116.94 80.1267 117.673 79.58 118.26C79.0333 118.847 78.32 119.227 77.44 119.4C78.1867 119.547 78.74 120.04 79.1 120.88L81.66 126.86ZM92.0689 121.06L89.6489 114.9L87.2089 121.06H92.0689ZM96.7089 126.94H94.3889L92.8689 123.12H86.3889L84.8489 126.94H82.5489L88.6289 112.02H90.8089L96.7089 126.94ZM100.97 126.86H98.7703V112.06H100.97V126.86ZM115.183 126.94H112.783L106.383 115.76V126.94H104.223V112.02H106.523L113.023 123.38V112.02H115.183V126.94ZM130.634 112.02L125.114 120.64V126.94H122.934V120.64L117.414 112.02H120.014L124.014 118.58L128.134 112.02H130.634ZM134.998 124.8H135.718C139.771 124.8 141.798 122.987 141.798 119.36C141.798 115.853 140.065 114.1 136.598 114.1H134.998V124.8ZM132.818 112.06H136.598C139.105 112.06 140.991 112.753 142.258 114.14C143.391 115.393 143.958 117.153 143.958 119.42C143.958 121.98 143.145 123.893 141.518 125.16C140.091 126.293 138.111 126.86 135.578 126.86H132.818V112.06ZM155.389 121.06L152.969 114.9L150.529 121.06H155.389ZM160.029 126.94H157.709L156.189 123.12H149.709L148.169 126.94H145.869L151.949 112.02H154.129L160.029 126.94ZM174.111 112.02L168.591 120.64V126.94H166.411V120.64L160.891 112.02H163.491L167.491 118.58L171.611 112.02H174.111ZM183.155 114.32C182.488 113.987 181.595 113.82 180.475 113.82C178.741 113.82 177.875 114.46 177.875 115.74C177.875 116.353 178.415 117 179.495 117.68C180.388 118.253 181.088 118.707 181.595 119.04C182.101 119.373 182.408 119.593 182.515 119.7C183.595 120.647 184.135 121.74 184.135 122.98C184.135 124.367 183.601 125.453 182.535 126.24C181.628 126.907 180.541 127.24 179.275 127.24C178.008 127.24 176.848 127.007 175.795 126.54L176.055 124.32C177.055 124.88 178.155 125.16 179.355 125.16C181.128 125.16 182.015 124.38 182.015 122.82C182.015 122.207 181.475 121.54 180.395 120.82C179.421 120.167 178.681 119.667 178.175 119.32C177.681 118.973 177.415 118.787 177.375 118.76C176.308 117.84 175.775 116.833 175.775 115.74C175.775 114.5 176.255 113.507 177.215 112.76C178.081 112.093 179.175 111.76 180.495 111.76C181.588 111.76 182.595 111.933 183.515 112.28L183.155 114.32ZM199.818 114.1H194.798V118.22H199.538V120.28H194.798V126.86H192.618V112.06H199.818V114.1ZM204.486 126.86H202.286V112.06H204.486V126.86ZM214.818 114.1H209.798V118.22H214.538V120.28H209.798V126.86H207.618V112.06H214.818V114.1ZM226.286 114.04H222.226V126.86H220.046V114.04H216.006V112.06H226.286V114.04ZM239.044 126.94H236.884V120.28H230.744V126.94H228.564V112.02H230.744V118.24H236.884V112.02H239.044V126.94ZM256.561 121.06L254.141 114.9L251.701 121.06H256.561ZM261.201 126.94H258.881L257.361 123.12H250.881L249.341 126.94H247.041L253.121 112.02H255.301L261.201 126.94ZM275.083 112.06L269.463 126.86H267.403L261.903 112.06H264.263L268.463 124.1L272.823 112.06H275.083ZM284.911 126.94H277.311V112.02H284.691V114.06H279.491V118.22H284.411V120.26H279.491V124.88H284.911V126.94ZM299.07 126.94H296.67L290.27 115.76V126.94H288.11V112.02H290.41L296.91 123.38V112.02H299.07V126.94ZM313.541 112.02V121.68C313.541 123.68 312.907 125.153 311.641 126.1C310.694 126.82 309.521 127.18 308.121 127.18C306.734 127.18 305.561 126.82 304.601 126.1C303.347 125.167 302.721 123.693 302.721 121.68V112.02H304.901V121.58C304.901 122.66 305.174 123.513 305.721 124.14C306.281 124.807 307.081 125.14 308.121 125.14C309.161 125.14 309.974 124.807 310.561 124.14C311.094 123.527 311.361 122.673 311.361 121.58V112.02H313.541ZM324.892 126.94H317.292V112.02H324.672V114.06H319.472V118.22H324.392V120.26H319.472V124.88H324.892V126.94ZM74.4 136.02L74.28 139.78C74.8 139.607 75.4 139.52 76.08 139.52C77.4667 139.52 78.5933 139.92 79.46 140.72C80.34 141.547 80.78 142.653 80.78 144.04C80.78 145.68 80.26 146.94 79.22 147.82C78.26 148.66 76.9667 149.08 75.34 149.08C73.9933 149.08 72.8733 148.887 71.98 148.5V146.38C73.02 146.887 74.1667 147.14 75.42 147.14C76.38 147.14 77.1533 146.907 77.74 146.44C78.3667 145.933 78.68 145.22 78.68 144.3C78.68 142.393 77.6133 141.44 75.48 141.44C74.3733 141.44 73.26 141.6 72.14 141.92L72.28 134.02H80.04V136.02H74.4ZM88.9889 148.94H86.8289V136.8L84.9489 138.38L83.6889 137L87.1889 134.02H88.9889V148.94ZM98.4447 135.96C97.298 135.96 96.5114 136.613 96.0847 137.92C95.8314 138.693 95.7047 139.873 95.7047 141.46C95.7047 143.06 95.8314 144.24 96.0847 145C96.498 146.32 97.2847 146.98 98.4447 146.98C99.5914 146.98 100.378 146.32 100.805 145C101.058 144.227 101.185 143.047 101.185 141.46C101.185 139.873 101.058 138.693 100.805 137.92C100.378 136.613 99.5914 135.96 98.4447 135.96ZM98.4447 133.9C100.258 133.9 101.578 134.753 102.405 136.46C103.031 137.753 103.345 139.42 103.345 141.46C103.345 146.5 101.711 149.02 98.4447 149.02C95.178 149.02 93.5447 146.5 93.5447 141.46C93.5447 139.393 93.8514 137.727 94.4647 136.46C95.2914 134.753 96.618 133.9 98.4447 133.9ZM118.959 136.1H113.939V140.22H118.679V142.28H113.939V148.86H111.759V134.06H118.959V136.1ZM123.527 148.94H121.387V137.74H123.527V148.94ZM123.527 135.82H121.387V133.32H123.527V135.82ZM131.762 134.68C131.429 134.533 131.089 134.46 130.742 134.46C130.209 134.46 129.855 134.62 129.682 134.94C129.549 135.153 129.482 135.54 129.482 136.1C129.482 136.18 129.482 136.32 129.482 136.52C129.495 136.72 129.502 136.873 129.502 136.98V137.76H131.502V139.7H129.502V148.94H127.382V139.7H125.522V137.76H127.382V137.08C127.382 135.547 127.549 134.487 127.882 133.9C128.335 133.06 129.249 132.64 130.622 132.64C131.195 132.64 131.615 132.72 131.882 132.88L131.762 134.68ZM139.128 148.86C138.621 149.073 138.048 149.18 137.408 149.18C136.141 149.18 135.321 148.84 134.948 148.16C134.668 147.707 134.528 146.833 134.528 145.54V139.88H132.808V137.9H134.528V135.52L136.688 134.82V137.9H138.808V139.88H136.688V146.1C136.688 146.873 137.041 147.26 137.748 147.26C138.214 147.26 138.621 147.173 138.968 147L139.128 148.86ZM149.933 148.86H147.793V142.46C147.793 141.487 147.68 140.787 147.453 140.36C147.146 139.853 146.613 139.6 145.853 139.6C145.013 139.6 144.366 139.947 143.913 140.64C143.526 141.267 143.333 142.053 143.333 143V148.86H141.193V132.94H143.333V138.96C143.6 138.52 143.986 138.187 144.493 137.96C144.986 137.72 145.513 137.6 146.073 137.6C147.473 137.6 148.48 138.027 149.093 138.88C149.653 139.64 149.933 140.807 149.933 142.38V148.86ZM167.128 143.06L164.708 136.9L162.268 143.06H167.128ZM171.768 148.94H169.448L167.928 145.12H161.448L159.908 148.94H157.608L163.688 134.02H165.868L171.768 148.94ZM182.009 138.06L178.209 148.86H176.229L172.569 138.06H174.749L177.269 145.92L179.869 138.06H182.009ZM192.305 144.24H185.565C185.605 145.2 185.865 145.947 186.345 146.48C186.838 147.053 187.518 147.34 188.385 147.34C189.585 147.34 190.645 147.08 191.565 146.56V148.58C190.498 148.98 189.418 149.18 188.325 149.18C186.605 149.18 185.325 148.633 184.485 147.54C183.751 146.567 183.385 145.207 183.385 143.46C183.385 141.78 183.791 140.413 184.605 139.36C185.418 138.307 186.511 137.78 187.885 137.78C189.418 137.78 190.565 138.327 191.325 139.42C191.978 140.353 192.305 141.587 192.305 143.12V144.24ZM190.125 142.34C190.125 141.593 189.931 140.967 189.545 140.46C189.145 139.927 188.618 139.66 187.965 139.66C187.298 139.66 186.731 139.933 186.265 140.48C185.798 141.027 185.565 141.647 185.565 142.34H190.125ZM203.603 148.94H201.523V142.24C201.523 140.52 200.896 139.66 199.643 139.66C198.79 139.66 198.143 140 197.703 140.68C197.343 141.267 197.163 142.02 197.163 142.94V148.94H195.083V140.8C195.083 140.28 195.07 139.793 195.043 139.34C195.03 138.873 195.01 138.433 194.983 138.02H196.983V139.12C197.636 138.227 198.603 137.78 199.883 137.78C202.363 137.78 203.603 139.16 203.603 141.92V148.94ZM213.812 148.96V147.86C213.092 148.74 212.145 149.18 210.972 149.18C209.665 149.18 208.672 148.787 207.992 148C207.392 147.267 207.092 146.28 207.092 145.04V138.04H209.232V144.64C209.232 146.413 209.879 147.3 211.172 147.3C212.039 147.3 212.699 146.973 213.152 146.32C213.512 145.787 213.692 145.06 213.692 144.14V138.04H215.812V146.2C215.812 147.187 215.852 148.107 215.932 148.96H213.812ZM227.461 144.24H220.721C220.761 145.2 221.021 145.947 221.501 146.48C221.994 147.053 222.674 147.34 223.541 147.34C224.741 147.34 225.801 147.08 226.721 146.56V148.58C225.654 148.98 224.574 149.18 223.481 149.18C221.761 149.18 220.481 148.633 219.641 147.54C218.908 146.567 218.541 145.207 218.541 143.46C218.541 141.78 218.948 140.413 219.761 139.36C220.574 138.307 221.668 137.78 223.041 137.78C224.574 137.78 225.721 138.327 226.481 139.42C227.134 140.353 227.461 141.587 227.461 143.12V144.24ZM225.281 142.34C225.281 141.593 225.088 140.967 224.701 140.46C224.301 139.927 223.774 139.66 223.121 139.66C222.454 139.66 221.888 139.933 221.421 140.48C220.954 141.027 220.721 141.647 220.721 142.34H225.281ZM233.059 147.64L231.319 151.8H229.579L230.639 147.64H233.059ZM252.82 148.94H250.42L244.02 137.76V148.94H241.86V134.02H244.16L250.66 145.38V134.02H252.82V148.94ZM264.551 144.24H257.811C257.851 145.2 258.111 145.947 258.591 146.48C259.084 147.053 259.764 147.34 260.631 147.34C261.831 147.34 262.891 147.08 263.811 146.56V148.58C262.744 148.98 261.664 149.18 260.571 149.18C258.851 149.18 257.571 148.633 256.731 147.54C255.997 146.567 255.631 145.207 255.631 143.46C255.631 141.78 256.037 140.413 256.851 139.36C257.664 138.307 258.757 137.78 260.131 137.78C261.664 137.78 262.811 138.327 263.571 139.42C264.224 140.353 264.551 141.587 264.551 143.12V144.24ZM262.371 142.34C262.371 141.593 262.177 140.967 261.791 140.46C261.391 139.927 260.864 139.66 260.211 139.66C259.544 139.66 258.977 139.933 258.511 140.48C258.044 141.027 257.811 141.647 257.811 142.34H262.371ZM282.329 138.04L278.709 148.94H276.549L274.069 141.04L271.509 148.94H269.329L265.789 138.04H268.069L270.489 145.88L273.029 138.04H275.209L277.629 145.88L280.149 138.04H282.329ZM301.943 134.02L296.423 142.64V148.94H294.243V142.64L288.723 134.02H291.323L295.323 140.58L299.443 134.02H301.943ZM308.367 139.66C307.46 139.66 306.74 140.02 306.207 140.74C305.7 141.447 305.447 142.36 305.447 143.48C305.447 144.6 305.7 145.513 306.207 146.22C306.74 146.94 307.46 147.3 308.367 147.3C309.273 147.3 309.987 146.94 310.507 146.22C311.027 145.527 311.287 144.613 311.287 143.48C311.287 142.36 311.027 141.447 310.507 140.74C309.987 140.02 309.273 139.66 308.367 139.66ZM308.367 137.78C310.02 137.78 311.307 138.373 312.227 139.56C313.053 140.613 313.467 141.92 313.467 143.48C313.467 145.04 313.053 146.347 312.227 147.4C311.307 148.587 310.02 149.18 308.367 149.18C306.7 149.18 305.407 148.587 304.487 147.4C303.673 146.373 303.267 145.067 303.267 143.48C303.267 141.893 303.673 140.587 304.487 139.56C305.407 138.373 306.7 137.78 308.367 137.78ZM321.255 140C321.082 139.973 320.922 139.953 320.775 139.94C320.629 139.913 320.482 139.9 320.335 139.9C319.562 139.9 318.989 140.28 318.615 141.04C318.269 141.707 318.095 142.533 318.095 143.52V148.94H315.955V140.7C315.955 140.193 315.942 139.72 315.915 139.28C315.902 138.827 315.882 138.407 315.855 138.02H318.015V139.36C318.629 138.307 319.409 137.78 320.355 137.78C320.649 137.78 320.949 137.82 321.255 137.9V140ZM332.621 148.86H329.821L325.501 144.24V148.86H323.361V132.94H325.501V141.42L329.361 137.78H332.121L326.841 142.76L332.621 148.86ZM74.22 228.18H75.24C76.12 228.18 76.8133 228.02 77.32 227.7C77.9333 227.34 78.24 226.793 78.24 226.06C78.24 225.193 77.98 224.627 77.46 224.36C77.1 224.187 76.3667 224.1 75.26 224.1H74.22V228.18ZM81.66 236.86H79.36L77.2 231.86C76.9067 231.18 76.64 230.753 76.4 230.58C76.1067 230.353 75.64 230.24 75 230.24H74.22V236.86H72.08V222.06H76C78.9333 222.06 80.4 223.393 80.4 226.06C80.4 226.94 80.1267 227.673 79.58 228.26C79.0333 228.847 78.32 229.227 77.44 229.4C78.1867 229.547 78.74 230.04 79.1 230.88L81.66 236.86ZM92.0689 231.06L89.6489 224.9L87.2089 231.06H92.0689ZM96.7089 236.94H94.3889L92.8689 233.12H86.3889L84.8489 236.94H82.5489L88.6289 222.02H90.8089L96.7089 236.94ZM100.97 236.86H98.7703V222.06H100.97V236.86ZM115.183 236.94H112.783L106.383 225.76V236.94H104.223V222.02H106.523L113.023 233.38V222.02H115.183V236.94ZM130.634 222.02L125.114 230.64V236.94H122.934V230.64L117.414 222.02H120.014L124.014 228.58L128.134 222.02H130.634ZM134.998 234.8H135.718C139.771 234.8 141.798 232.987 141.798 229.36C141.798 225.853 140.065 224.1 136.598 224.1H134.998V234.8ZM132.818 222.06H136.598C139.105 222.06 140.991 222.753 142.258 224.14C143.391 225.393 143.958 227.153 143.958 229.42C143.958 231.98 143.145 233.893 141.518 235.16C140.091 236.293 138.111 236.86 135.578 236.86H132.818V222.06ZM155.389 231.06L152.969 224.9L150.529 231.06H155.389ZM160.029 236.94H157.709L156.189 233.12H149.709L148.169 236.94H145.869L151.949 222.02H154.129L160.029 236.94ZM174.111 222.02L168.591 230.64V236.94H166.411V230.64L160.891 222.02H163.491L167.491 228.58L171.611 222.02H174.111ZM183.155 224.32C182.488 223.987 181.595 223.82 180.475 223.82C178.741 223.82 177.875 224.46 177.875 225.74C177.875 226.353 178.415 227 179.495 227.68C180.388 228.253 181.088 228.707 181.595 229.04C182.101 229.373 182.408 229.593 182.515 229.7C183.595 230.647 184.135 231.74 184.135 232.98C184.135 234.367 183.601 235.453 182.535 236.24C181.628 236.907 180.541 237.24 179.275 237.24C178.008 237.24 176.848 237.007 175.795 236.54L176.055 234.32C177.055 234.88 178.155 235.16 179.355 235.16C181.128 235.16 182.015 234.38 182.015 232.82C182.015 232.207 181.475 231.54 180.395 230.82C179.421 230.167 178.681 229.667 178.175 229.32C177.681 228.973 177.415 228.787 177.375 228.76C176.308 227.84 175.775 226.833 175.775 225.74C175.775 224.5 176.255 223.507 177.215 222.76C178.081 222.093 179.175 221.76 180.495 221.76C181.588 221.76 182.595 221.933 183.515 222.28L183.155 224.32ZM194.938 234.8H195.938C198.232 234.8 199.378 234.04 199.378 232.52C199.378 231.547 198.985 230.887 198.198 230.54C197.678 230.313 196.852 230.2 195.718 230.2H194.938V234.8ZM194.978 228.14H196.078C197.998 228.14 198.958 227.42 198.958 225.98C198.958 224.727 198.112 224.1 196.418 224.1H194.978V228.14ZM192.798 222.06H196.418C199.525 222.06 201.078 223.313 201.078 225.82C201.078 227.487 200.265 228.573 198.638 229.08C199.518 229.333 200.212 229.76 200.718 230.36C201.252 230.973 201.518 231.7 201.518 232.54C201.518 235.42 199.645 236.86 195.898 236.86H192.798V222.06ZM207.247 228.18H208.267C209.147 228.18 209.841 228.02 210.347 227.7C210.961 227.34 211.267 226.793 211.267 226.06C211.267 225.193 211.007 224.627 210.487 224.36C210.127 224.187 209.394 224.1 208.287 224.1H207.247V228.18ZM214.687 236.86H212.387L210.227 231.86C209.934 231.18 209.667 230.753 209.427 230.58C209.134 230.353 208.667 230.24 208.027 230.24H207.247V236.86H205.107V222.06H209.027C211.961 222.06 213.427 223.393 213.427 226.06C213.427 226.94 213.154 227.673 212.607 228.26C212.061 228.847 211.347 229.227 210.467 229.4C211.214 229.547 211.767 230.04 212.127 230.88L214.687 236.86ZM223.076 223.78C221.69 223.78 220.596 224.367 219.796 225.54C219.063 226.593 218.696 227.9 218.696 229.46C218.696 231.033 219.063 232.347 219.796 233.4C220.596 234.573 221.69 235.16 223.076 235.16C224.463 235.16 225.556 234.573 226.356 233.4C227.076 232.347 227.436 231.033 227.436 229.46C227.436 227.913 227.076 226.607 226.356 225.54C225.556 224.367 224.463 223.78 223.076 223.78ZM223.076 221.76C225.21 221.76 226.87 222.553 228.056 224.14C229.11 225.553 229.63 227.327 229.616 229.46C229.59 231.793 229.043 233.633 227.976 234.98C226.816 236.447 225.183 237.18 223.076 237.18C220.983 237.18 219.343 236.447 218.156 234.98C217.063 233.607 216.516 231.767 216.516 229.46C216.516 227.3 217.036 225.52 218.076 224.12C219.25 222.547 220.916 221.76 223.076 221.76ZM240.838 231.06L238.418 224.9L235.978 231.06H240.838ZM245.478 236.94H243.158L241.638 233.12H235.158L233.618 236.94H231.318L237.398 222.02H239.578L245.478 236.94ZM249.92 234.8H250.64C254.693 234.8 256.72 232.987 256.72 229.36C256.72 225.853 254.987 224.1 251.52 224.1H249.92V234.8ZM247.74 222.06H251.52C254.027 222.06 255.913 222.753 257.18 224.14C258.313 225.393 258.88 227.153 258.88 229.42C258.88 231.98 258.067 233.893 256.44 235.16C255.013 236.293 253.033 236.86 250.5 236.86H247.74V222.06ZM280.831 222.06L276.471 236.86H274.131L270.811 225.26L267.471 236.86H265.091L260.791 222.06H263.131L266.331 233.7L269.671 222.06H272.031L275.331 233.64L278.591 222.06H280.831ZM291.19 231.06L288.77 224.9L286.33 231.06H291.19ZM295.83 236.94H293.51L291.99 233.12H285.51L283.97 236.94H281.67L287.75 222.02H289.93L295.83 236.94ZM309.911 222.02L304.391 230.64V236.94H302.211V230.64L296.691 222.02H299.291L303.291 228.58L307.411 222.02H309.911ZM80.22 258.94H71.24L71.26 257.16L74.54 253.46C76.66 251.047 77.72 249.187 77.72 247.88C77.72 247.267 77.52 246.773 77.12 246.4C76.7333 246.027 76.24 245.84 75.64 245.84C74.6 245.84 73.4133 246.22 72.08 246.98L71.7 244.92C73.0867 244.213 74.3667 243.86 75.54 243.86C76.8333 243.86 77.86 244.18 78.62 244.82C79.4733 245.513 79.9 246.54 79.9 247.9C79.9 249.42 78.6667 251.633 76.2 254.54L74.14 256.96H80.22V258.94ZM88.9889 258.94H86.8289V246.8L84.9489 248.38L83.6889 247L87.1889 244.02H88.9889V258.94ZM98.4447 245.96C97.298 245.96 96.5114 246.613 96.0847 247.92C95.8314 248.693 95.7047 249.873 95.7047 251.46C95.7047 253.06 95.8314 254.24 96.0847 255C96.498 256.32 97.2847 256.98 98.4447 256.98C99.5914 256.98 100.378 256.32 100.805 255C101.058 254.227 101.185 253.047 101.185 251.46C101.185 249.873 101.058 248.693 100.805 247.92C100.378 246.613 99.5914 245.96 98.4447 245.96ZM98.4447 243.9C100.258 243.9 101.578 244.753 102.405 246.46C103.031 247.753 103.345 249.42 103.345 251.46C103.345 256.5 101.711 259.02 98.4447 259.02C95.178 259.02 93.5447 256.5 93.5447 251.46C93.5447 249.393 93.8514 247.727 94.4647 246.46C95.2914 244.753 96.618 243.9 98.4447 243.9ZM111.294 258.94H109.134V246.8L107.254 248.38L105.994 247L109.494 244.02H111.294V258.94ZM124.255 256.8H125.255C127.548 256.8 128.695 256.04 128.695 254.52C128.695 253.547 128.302 252.887 127.515 252.54C126.995 252.313 126.168 252.2 125.035 252.2H124.255V256.8ZM124.295 250.14H125.395C127.315 250.14 128.275 249.42 128.275 247.98C128.275 246.727 127.428 246.1 125.735 246.1H124.295V250.14ZM122.115 244.06H125.735C128.842 244.06 130.395 245.313 130.395 247.82C130.395 249.487 129.582 250.573 127.955 251.08C128.835 251.333 129.528 251.76 130.035 252.36C130.568 252.973 130.835 253.7 130.835 254.54C130.835 257.42 128.962 258.86 125.215 258.86H122.115V244.06ZM139.244 250C139.07 249.973 138.91 249.953 138.764 249.94C138.617 249.913 138.47 249.9 138.324 249.9C137.55 249.9 136.977 250.28 136.604 251.04C136.257 251.707 136.084 252.533 136.084 253.52V258.94H133.944V250.7C133.944 250.193 133.93 249.72 133.904 249.28C133.89 248.827 133.87 248.407 133.844 248.02H136.004V249.36C136.617 248.307 137.397 247.78 138.344 247.78C138.637 247.78 138.937 247.82 139.244 247.9V250ZM145.749 249.66C144.843 249.66 144.123 250.02 143.589 250.74C143.083 251.447 142.829 252.36 142.829 253.48C142.829 254.6 143.083 255.513 143.589 256.22C144.123 256.94 144.843 257.3 145.749 257.3C146.656 257.3 147.369 256.94 147.889 256.22C148.409 255.527 148.669 254.613 148.669 253.48C148.669 252.36 148.409 251.447 147.889 250.74C147.369 250.02 146.656 249.66 145.749 249.66ZM145.749 247.78C147.403 247.78 148.689 248.373 149.609 249.56C150.436 250.613 150.849 251.92 150.849 253.48C150.849 255.04 150.436 256.347 149.609 257.4C148.689 258.587 147.403 259.18 145.749 259.18C144.083 259.18 142.789 258.587 141.869 257.4C141.056 256.373 140.649 255.067 140.649 253.48C140.649 251.893 141.056 250.587 141.869 249.56C142.789 248.373 144.083 247.78 145.749 247.78ZM159.218 258.96V257.9C158.565 258.753 157.625 259.18 156.398 259.18C155.065 259.18 154.078 258.807 153.438 258.06C152.985 257.513 152.758 256.847 152.758 256.06C152.758 253.34 154.758 251.98 158.758 251.98H159.058V251.62C159.058 250.313 158.452 249.66 157.238 249.66C156.145 249.66 155.065 249.947 153.998 250.52V248.56C155.012 248.04 156.132 247.78 157.358 247.78C158.638 247.78 159.572 248.08 160.158 248.68C160.785 249.333 161.098 250.347 161.098 251.72V256.38C161.098 257.607 161.138 258.467 161.218 258.96H159.218ZM159.058 253.84H158.638C157.598 253.84 156.798 253.933 156.238 254.12C155.345 254.413 154.898 254.993 154.898 255.86C154.898 256.82 155.452 257.3 156.558 257.3C158.225 257.3 159.058 256.287 159.058 254.26V253.84ZM168.577 249.5C167.67 249.5 166.997 249.907 166.557 250.72C166.183 251.387 165.997 252.293 165.997 253.44C165.997 255.987 166.857 257.26 168.577 257.26C169.403 257.26 170.057 256.847 170.537 256.02C170.923 255.313 171.117 254.433 171.117 253.38C171.117 252.327 170.923 251.447 170.537 250.74C170.07 249.913 169.417 249.5 168.577 249.5ZM173.137 258.96H171.117V257.96C170.45 258.787 169.537 259.2 168.377 259.2C166.923 259.2 165.797 258.66 164.997 257.58C164.25 256.527 163.877 255.147 163.877 253.44C163.877 251.68 164.223 250.293 164.917 249.28C165.677 248.147 166.83 247.58 168.377 247.58C169.443 247.58 170.357 248.02 171.117 248.9V242.9H173.137V258.96ZM191.646 248.04L188.026 258.94H185.866L183.386 251.04L180.826 258.94H178.646L175.106 248.04H177.386L179.806 255.88L182.346 248.04H184.526L186.946 255.88L189.466 248.04H191.646ZM199.414 258.96V257.9C198.76 258.753 197.82 259.18 196.594 259.18C195.26 259.18 194.274 258.807 193.634 258.06C193.18 257.513 192.954 256.847 192.954 256.06C192.954 253.34 194.954 251.98 198.954 251.98H199.254V251.62C199.254 250.313 198.647 249.66 197.434 249.66C196.34 249.66 195.26 249.947 194.194 250.52V248.56C195.207 248.04 196.327 247.78 197.554 247.78C198.834 247.78 199.767 248.08 200.354 248.68C200.98 249.333 201.294 250.347 201.294 251.72V256.38C201.294 257.607 201.334 258.467 201.414 258.96H199.414ZM199.254 253.84H198.834C197.794 253.84 196.994 253.933 196.434 254.12C195.54 254.413 195.094 254.993 195.094 255.86C195.094 256.82 195.647 257.3 196.754 257.3C198.42 257.3 199.254 256.287 199.254 254.26V253.84ZM212.512 248.04L208.552 259.1C208.219 260.033 207.872 260.68 207.512 261.04C207.072 261.533 206.485 261.787 205.752 261.8H205.552C205.045 261.8 204.525 261.733 203.992 261.6L204.212 259.6C204.679 259.773 205.059 259.86 205.352 259.86C205.379 259.86 205.432 259.853 205.512 259.84C205.605 259.84 205.725 259.833 205.872 259.82C206.179 259.793 206.459 259.347 206.712 258.48L206.872 257.96L203.252 248.04H205.452L207.872 255.34L210.392 248.04H212.512ZM217.395 257.64L215.655 261.8H213.915L214.975 257.64H217.395ZM237.155 258.94H234.755L228.355 247.76V258.94H226.195V244.02H228.495L234.995 255.38V244.02H237.155V258.94ZM248.887 254.24H242.147C242.187 255.2 242.447 255.947 242.927 256.48C243.42 257.053 244.1 257.34 244.967 257.34C246.167 257.34 247.227 257.08 248.147 256.56V258.58C247.08 258.98 246 259.18 244.907 259.18C243.187 259.18 241.907 258.633 241.067 257.54C240.333 256.567 239.967 255.207 239.967 253.46C239.967 251.78 240.373 250.413 241.187 249.36C242 248.307 243.093 247.78 244.467 247.78C246 247.78 247.147 248.327 247.907 249.42C248.56 250.353 248.887 251.587 248.887 253.12V254.24ZM246.707 252.34C246.707 251.593 246.513 250.967 246.127 250.46C245.727 249.927 245.2 249.66 244.547 249.66C243.88 249.66 243.313 249.933 242.847 250.48C242.38 251.027 242.147 251.647 242.147 252.34H246.707ZM266.665 248.04L263.045 258.94H260.885L258.405 251.04L255.845 258.94H253.665L250.125 248.04H252.405L254.825 255.88L257.365 248.04H259.545L261.965 255.88L264.485 248.04H266.665ZM286.279 244.02L280.759 252.64V258.94H278.579V252.64L273.059 244.02H275.659L279.659 250.58L283.779 244.02H286.279ZM292.703 249.66C291.796 249.66 291.076 250.02 290.543 250.74C290.036 251.447 289.783 252.36 289.783 253.48C289.783 254.6 290.036 255.513 290.543 256.22C291.076 256.94 291.796 257.3 292.703 257.3C293.609 257.3 294.323 256.94 294.843 256.22C295.363 255.527 295.623 254.613 295.623 253.48C295.623 252.36 295.363 251.447 294.843 250.74C294.323 250.02 293.609 249.66 292.703 249.66ZM292.703 247.78C294.356 247.78 295.643 248.373 296.562 249.56C297.389 250.613 297.803 251.92 297.803 253.48C297.803 255.04 297.389 256.347 296.562 257.4C295.643 258.587 294.356 259.18 292.703 259.18C291.036 259.18 289.743 258.587 288.823 257.4C288.009 256.373 287.603 255.067 287.603 253.48C287.603 251.893 288.009 250.587 288.823 249.56C289.743 248.373 291.036 247.78 292.703 247.78ZM305.591 250C305.418 249.973 305.258 249.953 305.111 249.94C304.965 249.913 304.818 249.9 304.671 249.9C303.898 249.9 303.325 250.28 302.951 251.04C302.605 251.707 302.431 252.533 302.431 253.52V258.94H300.291V250.7C300.291 250.193 300.278 249.72 300.251 249.28C300.238 248.827 300.218 248.407 300.191 248.02H302.351V249.36C302.965 248.307 303.745 247.78 304.691 247.78C304.985 247.78 305.285 247.82 305.591 247.9V250ZM316.957 258.86H314.157L309.837 254.24V258.86H307.697V242.94H309.837V251.42L313.697 247.78H316.457L311.177 252.76L316.957 258.86Z" fill="black"/>
<path d="M55.564 139.692H39.4L39.436 136.488L45.34 129.828C49.156 125.484 51.064 122.136 51.064 119.784C51.064 118.68 50.704 117.792 49.984 117.12C49.288 116.448 48.4 116.112 47.32 116.112C45.448 116.112 43.312 116.796 40.912 118.164L40.228 114.456C42.724 113.184 45.028 112.548 47.14 112.548C49.468 112.548 51.316 113.124 52.684 114.276C54.22 115.524 54.988 117.372 54.988 119.82C54.988 122.556 52.768 126.54 48.328 131.772L44.62 136.128H55.564V139.692Z" fill="black"/>
<path d="M36.76 240.94C39.136 241.924 41.332 242.416 43.348 242.416C44.956 242.416 46.252 242.056 47.236 241.336C48.364 240.544 48.928 239.38 48.928 237.844C48.928 234.964 46.912 233.524 42.88 233.524H40.216V229.924H41.296C43.528 229.924 45.208 229.708 46.336 229.276C47.992 228.604 48.82 227.332 48.82 225.46C48.82 224.98 48.688 224.536 48.424 224.128C48.184 223.72 47.848 223.372 47.416 223.084C46.984 222.796 46.468 222.568 45.868 222.4C45.292 222.232 44.668 222.148 43.996 222.148C42.22 222.148 40.216 222.664 37.984 223.696L37.624 219.808C39.856 218.968 42.052 218.548 44.212 218.548C46.588 218.548 48.508 219.028 49.972 219.988C51.796 221.164 52.708 222.94 52.708 225.316C52.708 228.148 51.328 230.248 48.568 231.616C51.376 232.672 52.78 234.82 52.78 238.06C52.78 240.532 51.832 242.5 49.936 243.964C48.184 245.284 45.94 245.944 43.204 245.944C40.42 245.944 38.128 245.572 36.328 244.828L36.76 240.94Z" fill="black"/>
</svg>
